<?xml version="1.0"?><svg fill="#4dff89" xmlns="http://www.w3.org/2000/svg"  viewBox="0 0 50 50" width="100px" height="100px">    <path d="M 35.445312 2.0117188 C 35.056812 2.0253438 34.669266 2.1265938 34.322266 2.3085938 C 35.227266 2.7565937 35.865703 3.6414062 35.970703 4.6914062 C 35.988703 4.8174062 36 4.9322812 36 4.9882812 L 36 44.988281 C 36 46.174281 35.306594 47.190734 34.308594 47.677734 C 34.672594 47.876734 35.079 47.988281 35.5 47.988281 C 35.873 47.988281 36.224969 47.901859 36.542969 47.755859 L 36.544922 47.759766 C 38.152922 46.927766 46.192281 42.764703 46.488281 42.595703 C 47.421281 42.060703 48 41.061281 48 39.988281 L 48 9.9882812 C 48 8.9902813 47.505734 8.0619062 46.677734 7.5039062 C 46.357734 7.2869063 36.582031 2.2363281 36.582031 2.2363281 L 36.580078 2.2402344 C 36.224078 2.0727344 35.833813 1.9980938 35.445312 2.0117188 z M 33 3.9882812 C 32.744125 3.9882812 32.487969 4.08575 32.292969 4.28125 C 32.292969 4.28125 26.568469 10.718844 20.230469 17.839844 L 27.724609 23.970703 L 34 18.685547 L 34 4.9882812 C 34 4.7322812 33.902031 4.47625 33.707031 4.28125 C 33.511531 4.08575 33.255875 3.9882812 33 3.9882812 z M 8 10.988281 C 7.844 10.988281 7.5538594 10.988844 6.2558594 11.589844 C 5.5408594 11.920844 3.0507812 13.228516 3.0507812 13.228516 C 2.7207812 13.407516 2.4545781 13.687719 2.2675781 14.011719 C 2.3435781 13.999719 2.4190469 13.988281 2.4980469 13.988281 L 2.5 13.988281 C 3.168 13.988281 3.5776562 14.454469 3.7226562 14.605469 C 3.7226562 14.605469 31.929969 45.332313 32.292969 45.695312 C 32.487969 45.890313 32.742047 45.988281 32.998047 45.988281 C 33.254047 45.988281 33.510078 45.890313 33.705078 45.695312 C 33.900078 45.500312 34 45.244281 34 44.988281 L 34 31.658203 C 34 31.658203 9.53375 11.661813 9.34375 11.507812 C 8.97575 11.173813 8.497 10.988281 8 10.988281 z M 2.1992188 15.988281 C 2.0892188 15.988281 2 16.078453 2 16.189453 L 2 34.794922 C 2 34.901922 2.0873125 34.990234 2.1953125 34.990234 C 2.2513125 34.990234 2.3009375 34.964781 2.3359375 34.925781 L 8 28.638672 L 8 22.007812 L 2.3417969 16.046875 C 2.3057969 16.010875 2.2542188 15.988281 2.1992188 15.988281 z M 12.253906 26.802734 C 12.253906 26.802734 3.6585469 36.452781 3.5605469 36.550781 C 3.2895469 36.821781 2.915 36.988281 2.5 36.988281 C 2.422 36.988281 2.3464844 36.978797 2.2714844 36.966797 C 2.4734844 37.317797 2.7697188 37.607156 3.1367188 37.785156 L 3.1328125 37.791016 C 4.0028125 38.233016 6.8739531 39.691703 7.2519531 39.845703 C 7.4899531 39.940703 7.741 39.988281 8 39.988281 C 8.347 39.988281 8.6900469 39.898656 8.9980469 39.722656 C 9.0210469 39.709656 17.527344 32.552734 17.527344 32.552734 L 12.253906 26.802734 z"/></svg>