<svg width="198" height="300" viewBox="0 0 198 300" fill="none" xmlns="http://www.w3.org/2000/svg">
<rect x="2" y="48" width="48" height="78" fill="white"/>
<rect x="148" width="48" height="126" fill="white"/>
<rect x="2" y="174" width="48" height="126" fill="white"/>
<rect x="148" y="174" width="48" height="76" fill="white"/>
<rect x="50" y="126" width="98" height="48" fill="white"/>
<rect x="50" width="146" height="48" fill="white"/>
<path d="M3.20711 47.5L49.5 1.20711V47.5H3.20711Z" fill="white" stroke="white"/>
<path d="M194.793 250.5L148.5 296.793L148.5 250.5L194.793 250.5Z" fill="white" stroke="white"/>
<path d="M50.2774 11.4418C51.6819 10.6707 53.2406 10.1876 54.6627 9.4383C54.8474 9.341 55.3265 9.11059 54.6898 9.36109C52.6895 10.1481 50.8004 11.1807 48.9726 12.3065C48.4289 12.6415 47.7738 12.9844 47.2663 13.3874C46.8644 13.7066 48.2734 13.152 48.7371 12.9319C51.5613 11.5914 53.6502 9.53926 55.6433 7.18385C55.8708 6.915 55.1183 7.65546 54.8828 7.91732C53.8464 9.0697 52.9555 10.3361 52.0686 11.604C52.0648 11.6094 51.6775 12.0645 51.752 12.1521C52.0477 12.5 53.0972 10.7715 53.1263 10.7199C53.4777 10.0974 53.8832 9.28615 53.8945 8.54656C53.9024 8.03737 53.2089 8.36297 52.9642 8.46163C52.8055 8.52561 51.8699 9.13176 51.7134 9.03296C51.4279 8.85265 51.3782 7.69706 51.3197 7.41161" stroke="white" stroke-width="3" stroke-linecap="round"/>
<path d="M53.2676 4.03788C53.3169 4.0324 53.213 3.96953 53.211 3.96813C53.0401 3.84999 52.8529 3.74113 52.6637 3.6555C52.5432 3.60096 52.4289 3.55637 52.3301 3.46923C52.2767 3.4221 52.2405 3.34666 52.2009 3.28789C52.1607 3.22834 52.1224 3.16429 52.0745 3.11064C52.0333 3.06437 51.9895 3.019 51.956 2.96746C51.9384 2.94041 51.9023 2.91552 51.8957 2.88253C51.8866 2.83724 51.8807 2.82332 51.8612 2.87842C51.8205 2.99328 51.7739 3.10722 51.7217 3.21732C51.67 3.32631 51.5754 3.37855 51.4895 3.45774C51.4418 3.50169 51.397 3.54756 51.3446 3.58616C51.3053 3.61513 51.2607 3.63427 51.2207 3.66206C51.167 3.69947 51.1196 3.74185 51.0665 3.77981C51.0143 3.81709 50.9591 3.84847 50.9077 3.88731C50.8434 3.93588 50.8228 4.00214 50.783 4.06947C50.7688 4.09339 50.7457 4.15604 50.7124 4.15604" stroke="white" stroke-width="3" stroke-linecap="square"/>
<path d="M50.2351 4.36914C50.2351 5.18302 50.229 5.99711 50.2351 6.81096C50.2407 7.55823 50.3679 8.27282 50.4594 9.01063C50.5117 9.43205 50.6128 9.84396 50.6659 10.2647C50.8285 11.554 51.061 12.8628 51.061 14.1644" stroke="white" stroke-width="3" stroke-linecap="square"/>
<path d="M56.6437 44.9562C56.6964 45.0265 55.8732 45.0166 55.7581 45.0166C55.3074 45.0166 54.8567 45.0166 54.406 45.0166C53.8406 45.0166 53.2818 45.0135 52.7186 45.0636C51.8183 45.1436 50.9327 45.2582 50.0246 45.2582C49.7292 45.2582 49.2377 45.4005 49.4006 44.9797C49.7336 44.1194 50.0942 43.2535 50.2494 42.3394C50.6741 39.8384 50.6589 37.2055 50.6989 34.6837C50.7351 32.4072 50.7286 30.1299 50.7258 27.8532C50.725 27.2234 50.7234 26.1587 50.7124 25.5048C50.7084 25.2688 50.7024 25.0328 50.6922 24.7969C50.6857 24.6459 50.734 24.2359 50.6318 24.3474C50.4916 24.5004 50.5536 24.7554 50.5278 24.9613C50.441 25.6565 50.3718 26.2836 50.3098 26.991C50.1876 28.3852 50.1219 29.7786 50.1219 31.1779C50.1219 31.2461 50.1027 31.9422 50.1957 31.3322C50.4562 29.6247 50.4742 27.8725 50.4842 26.1489C50.4861 25.8332 50.46 24.888 50.4373 25.2029C50.2848 27.3176 50.1648 29.4393 50.0682 31.557C49.9471 34.2134 49.7974 36.908 49.9206 39.5683C49.924 39.6419 49.9725 40.3384 50.0481 40.5077C50.1889 40.8229 50.3126 39.8628 50.3635 39.5214C50.6335 37.7095 50.6227 35.8761 50.5614 34.0496C50.5307 33.1351 50.4001 30.4042 50.3165 31.3154C50.2189 32.3793 50.2981 33.4987 50.3031 34.5629C50.3064 35.2782 50.315 36.7401 50.3567 37.4749C50.3955 38.1563 50.4196 38.9496 50.8164 39.5415C50.8632 39.6113 51.5108 40.193 51.5108 39.7797C51.5108 39.1864 51.5057 38.5953 51.4907 38.0016C51.4435 36.136 51.4032 34.7546 51.2659 32.8251C51.0872 30.3132 50.9479 27.6144 50.1487 25.1962C50.1358 25.157 49.8314 24.2946 49.4912 24.3105C49.2986 24.3195 48.975 24.8683 48.941 24.9412C48.4243 26.0484 48.3761 27.4198 48.3371 28.6181C48.3221 29.0797 48.2991 30.2801 48.9813 29.3428C50.3413 27.4741 50.8689 24.9016 51.2055 22.67C51.5349 20.4864 51.6697 18.2732 51.7389 16.0676C51.7397 16.0429 51.7667 15.4151 51.7423 15.2323C51.7231 15.0884 51.6815 15.1846 51.645 15.2692C51.303 16.0626 51.2787 17.0498 51.2257 17.8927C51.1759 18.6834 51.1654 19.3159 51.1552 20.1069C51.1457 20.8381 51.0708 21.6712 51.2156 22.3982C51.4087 23.3677 51.9331 21.7741 51.9537 21.6937C52.3916 19.9789 52.5144 18.1269 52.5911 16.3662C52.6723 14.501 52.5939 12.6393 52.2824 10.7972C52.2343 10.5127 52.0533 9.62751 51.9537 9.28077C51.8603 8.95581 51.7756 8.87355 51.6349 9.22374C51.1992 10.3083 51.0231 11.5378 50.8767 12.6893C50.7707 13.5236 50.6335 14.4809 50.7392 15.3262C50.7783 15.6389 51.0534 14.767 51.1116 14.4573C51.3889 12.9809 51.3836 11.4616 51.39 9.96516C51.3917 9.58271 51.3956 9.20021 51.39 8.8178C51.3886 8.71628 51.4438 8.47756 51.3498 8.51586C51.0844 8.62397 51.0315 10.0321 51.0143 10.1799C50.8495 11.5962 50.7931 13.0155 50.7862 14.4405C50.785 14.6802 50.7891 15.8063 50.7996 16.1247C50.8059 16.316 50.8227 16.804 50.964 16.6749C51.4481 16.2323 51.5673 15.1945 51.6752 14.6083C51.8882 13.4506 52.0015 12.2682 52.0409 11.0924C52.0609 10.4957 52.1678 9.70534 52.0107 9.11303C51.8765 8.60731 51.5037 10.0414 51.3766 10.5489C50.9378 12.3015 50.4647 14.0664 50.2427 15.863C50.1641 16.499 50.1331 17.1988 50.1219 17.8423C50.1155 18.2099 50.055 18.7719 50.1689 19.144C50.2831 19.517 50.702 18.978 50.7493 18.8924C51.4485 17.6263 51.7127 15.9679 51.7859 14.5412C51.8448 13.3935 51.8207 12.2347 51.8127 11.0857C51.8095 10.6114 51.7816 10.3618 51.5846 11.0521C51.1109 12.7124 50.762 14.43 50.4775 16.1314C50.1529 18.0729 49.7782 20.258 50.1487 22.2238C50.2928 22.9882 50.734 23.2596 51.4706 22.9048C52.6113 22.3553 52.9946 21.057 53.2587 19.919C53.6425 18.2652 53.7604 16.5535 53.7552 14.8599C53.755 14.7968 53.8188 12.3705 53.4231 12.4545C52.704 12.607 52.0207 14.2254 51.7926 14.6888C50.7219 16.8642 49.7306 19.3297 49.5986 21.7809C49.5471 22.7364 49.8756 25.7697 51.645 24.5118C52.222 24.1016 52.698 23.1167 52.9064 22.4922C53.3883 21.0486 53.4269 19.453 53.4432 17.9497C53.4525 17.0918 53.436 16.3081 53.3795 15.4604C53.3718 15.3449 53.3556 14.8294 53.252 14.6351C53.0435 14.2442 52.7039 15.352 52.5642 15.7724C51.9778 17.5383 51.5283 19.4319 51.4706 21.2978C51.4297 22.6184 51.6381 24.3934 52.8125 25.2431C54.4254 26.4102 55.3089 23.6224 55.4628 22.5324C55.641 21.2708 55.1683 16.2797 52.7957 17.6008C51.5492 18.2949 50.545 19.7283 49.877 20.9422C49.1464 22.27 48.2913 24.2394 48.7162 25.8C48.9897 26.8044 50.1989 26.7976 51.0109 26.5851C51.8533 26.3646 52.2901 26.1198 52.8997 25.4277C54.2914 23.8477 55.1672 21.6051 55.4964 19.5466C55.6153 18.8031 55.7083 17.3716 55.1005 16.6681C54.7132 16.2199 53.9298 16.3492 53.4969 16.5541C52.1021 17.2141 51.1029 18.8816 50.5379 20.2377C50.2674 20.8869 49.9761 21.9075 49.8736 22.6196C49.8306 22.919 49.7757 23.6076 49.9676 23.9347C50.4995 24.8418 52.1296 23.7372 52.5777 23.3678C53.7386 22.4104 54.6207 21.0787 55.0233 19.6271C55.6525 17.3586 55.5309 14.6475 54.6778 12.4477C54.4482 11.8558 54.0324 10.9964 53.2822 10.9649C52.0388 10.9127 50.7355 12.1663 49.8804 12.8906C48.8104 13.7968 47.7704 14.7639 46.8912 15.8596C46.6805 16.1222 46.5526 16.2989 46.388 16.5608C46.348 16.6244 46.4678 16.4331 46.502 16.3662C47.6157 14.1883 48.3026 11.6608 48.6793 9.25393C48.7883 8.55774 48.8448 7.85795 48.8538 7.1538C48.8539 7.14747 48.9154 6.7326 48.8001 6.90554C48.4785 7.38796 48.2023 7.90516 47.9547 8.42864C47.7512 8.85881 47.3164 9.60099 47.3609 10.1128C47.3754 10.2802 47.6532 9.93308 47.7567 9.80077C48.2884 9.12141 48.8293 8.45327 49.414 7.81806C49.5037 7.72063 51.2384 5.97173 51.3766 6.14063C51.6104 6.42633 50.9899 7.59913 50.8935 7.82477C50.6674 8.35434 50.4013 8.86427 50.2091 9.40825C50.1168 9.66958 49.9659 10.025 50.0045 10.3141C50.0228 10.4513 50.0962 10.5922 50.1219 10.7301C50.2578 11.4581 50.2677 12.2209 50.2997 12.9577C50.414 15.5874 50.2742 18.2304 50.605 20.8483C50.6977 21.5819 50.9171 22.3033 50.9539 23.0424C50.9784 23.5347 50.9535 24.0274 51.0076 24.5185C51.0991 25.3487 51.3054 26.1623 51.4471 26.9843C51.7383 28.6733 51.838 30.3991 52.0442 32.1004C52.1417 32.9045 52.0965 33.7324 52.2824 34.5226C52.4362 35.1762 52.3562 35.8942 52.3562 36.5624" stroke="white" stroke-width="3" stroke-linecap="square"/>
<path d="M50.1836 46.3789C50.1745 46.3789 50.1602 46.4118 50.1602 46.4219" stroke="white" stroke-width="3" stroke-linecap="square"/>
<path d="M17.6606 52.8756C17.6243 52.9792 17.5068 53.03 17.4278 53.0973C17.2598 53.2405 17.1381 53.4175 17.0843 53.6329C17.0777 53.6593 17.0308 53.8722 17.0695 53.8915C17.1533 53.9334 17.5989 53.3259 17.6365 53.2801C18.0384 52.7913 18.4102 52.3071 18.8852 51.8837C19.2525 51.5563 19.8142 51.0503 19.5575 50.4873C19.3871 50.1133 18.8453 49.93 18.4955 49.8057C17.9926 49.6271 17.4727 49.5265 16.942 49.4862C16.7316 49.4702 16.5592 49.4163 16.3583 49.3661C15.8938 49.25 15.4767 49.0004 15.0026 48.9043C14.6256 48.8279 14.2709 48.8054 13.8906 48.7695C13.012 48.6866 12.102 48.7529 11.2178 48.7529C10.9161 48.7529 10.6144 48.7529 10.3127 48.7529" stroke="white" stroke-width="3" stroke-linecap="square"/>
<path d="M8.91626 48.7529H9.44823" stroke="white" stroke-width="3" stroke-linecap="square"/>
<path d="M7.71924 48.6199H7.78573" stroke="white" stroke-width="3" stroke-linecap="square"/>
<path d="M6.65552 48.5201H6.78851" stroke="white" stroke-width="3" stroke-linecap="square"/>
<path d="M5.92407 48.4869H6.02382" stroke="white" stroke-width="3" stroke-linecap="square"/>
<path d="M4.86011 48.3872H4.9931" stroke="white" stroke-width="3" stroke-linecap="square"/>
<path d="M14.0697 49.2516C15.0234 49.2516 15.9772 49.2516 16.9309 49.2516C17.2474 49.2516 17.5678 49.1956 17.8785 49.1371C18.3246 49.0529 18.7566 48.895 19.1936 48.775C19.7788 48.6143 20.3701 48.4749 20.9631 48.3465C21.0596 48.3256 21.3475 48.2817 21.2494 48.2708C20.7508 48.2154 20.2226 48.2535 19.7237 48.256C18.4857 48.2621 17.2414 48.2527 16.0055 48.3336C15.4034 48.3729 14.6976 48.4077 14.1177 48.6051C13.7364 48.7349 14.9232 48.5448 15.3184 48.4666C16.3905 48.2544 17.4551 47.9646 18.4825 47.591C18.5152 47.5791 18.851 47.4583 18.9498 47.3915C18.9985 47.3586 18.8329 47.3681 18.7743 47.3731C17.7726 47.4586 16.7638 47.6101 15.7801 47.8145C14.5547 48.0691 13.3464 48.4062 12.1487 48.7676C11.6471 48.919 11.4808 48.9718 11.0589 49.1371C11.0018 49.1594 10.8345 49.2741 11.1771 49.0632C11.9455 48.5902 12.698 48.0893 13.4232 47.5522C13.4254 47.5506 14.5453 46.6862 14.5056 46.6508C14.4789 46.6271 14.4355 46.6659 14.4022 46.6785C14.2003 46.7554 13.8914 46.9122 13.7261 46.9963C12.869 47.4322 11.993 47.8818 11.2104 48.4444C10.7119 48.8028 11.1894 48.723 11.5004 48.6734C12.5666 48.5036 13.6182 48.2529 14.6737 48.0288C15.0849 47.9415 15.5043 47.8445 15.9242 47.8034C15.9445 47.8015 16.0024 47.7963 15.9852 47.8071C15.9465 47.8316 15.898 47.8353 15.854 47.8478C15.41 47.9737 15.4272 47.9566 14.9231 48.1138C14.7644 48.1632 12.7423 48.7678 12.81 48.9819C12.8434 49.0877 13.0241 49.0499 13.1351 49.0539C13.4625 49.066 13.7904 49.045 14.1177 49.0299C35.5436 48.0401 -8.17476 50.0057 18.0004 48.812C19.5645 48.7406 20.9981 48.697 22.5627 48.6827C23.1116 48.6776 25.3323 48.6774 26.0279 48.7233C26.2512 48.738 26.4901 48.73 26.691 48.8286C26.7508 48.8579 26.6862 48.983 26.6301 49.0188C26.402 49.1644 25.106 49.6069 24.9677 49.6542C24.7421 49.7314 23.3666 50.1776 23.0799 50.2823C22.9041 50.3464 22.7265 50.4092 22.5609 50.4965C22.4972 50.5301 22.3533 50.586 22.4002 50.6406C22.4753 50.7281 22.625 50.6974 22.7401 50.7053C23.003 50.7233 23.2671 50.7201 23.5306 50.7182C24.197 50.7134 25.7269 50.6613 26.3382 50.648" stroke="white" stroke-width="3" stroke-linecap="square"/>
<path d="M18.9526 48.7395C19.306 48.3782 19.867 48.1623 20.3051 47.9612C21.9488 47.2066 23.648 46.5446 25.3746 46.005C25.9636 45.821 26.5851 45.634 27.2035 45.567C27.6142 45.5226 27.4254 45.7971 27.2923 46.0405C26.9727 46.6249 26.6092 47.1849 26.2831 47.7659C26.0084 48.2555 25.8162 48.6153 25.5818 49.1183C25.5201 49.2507 25.3065 49.6806 25.3006 49.8937C25.2889 50.3154 26.6307 49.9121 26.7152 49.8908C28.0476 49.5537 29.2097 48.8983 30.3464 48.1417C30.9431 47.7446 31.5388 47.3277 32.0866 46.8633C32.1068 46.8461 32.1591 46.7858 32.1399 46.8041C31.9696 46.9661 31.7281 47.2161 31.5835 47.3723C30.6881 48.339 29.8648 49.3656 29.0916 50.4323C28.8049 50.828 28.1626 51.7459 27.8901 52.1961C27.7402 52.4438 27.4249 52.7476 27.5646 53.0011C27.731 53.3032 29.2014 52.7804 29.2248 52.7732C30.9042 52.2573 32.3871 51.4148 33.8208 50.4116C33.8464 50.3937 35.9416 48.6783 36.0611 48.7691C36.1873 48.865 35.7763 50.2606 35.7533 50.4264C35.7206 50.662 35.6181 51.1359 35.7267 51.3853C35.8496 51.6678 36.4389 51.2372 36.5139 51.1899C38.2085 50.122 39.712 48.7697 41.3881 47.6712C41.5705 47.5516 41.8592 47.2546 41.9947 47.4255C42.2021 47.6869 42.0703 48.5391 42.0717 48.8165C42.0735 49.1877 41.8062 51.54 42.7701 50.8171C43.8006 50.0442 44.4932 48.9237 45.2916 47.9375C45.8079 47.2997 45.6011 48.1444 45.5905 48.5176C45.5879 48.6056 45.503 49.2409 45.6704 49.0473C46.1883 48.4485 46.6107 47.7891 47.1856 47.248" stroke="white" stroke-width="3" stroke-linecap="square"/>
<path d="M36.372 42.1873C36.312 43.8965 36.2148 45.604 36.153 47.3131C36.1311 47.9184 36.109 48.6842 36.1175 49.3077C36.1202 49.5084 36.0752 50.0516 36.2388 50.2459C36.6369 50.7187 37.3899 49.421 37.4729 49.2781C38.5753 47.3799 39.2988 45.2673 40.1364 43.2468C40.3471 42.7384 40.6499 42.0084 40.9029 41.4741C40.9447 41.3858 41.0887 41.1611 41.1011 41.2581C41.1141 41.3598 41.113 41.8653 41.113 41.8677C41.1157 42.9313 41.1056 43.9945 41.1337 45.058C41.1685 46.3747 41.2118 47.3103 41.3172 48.633C41.4053 49.7394 41.4731 50.9312 41.77 52.0126C41.8095 52.1566 41.8596 52.4777 41.989 52.4033C42.3164 52.2149 42.2897 50.2253 42.2938 50.1482C42.3376 49.3176 42.3667 46.822 42.3411 47.6534C42.3142 48.5278 42.3158 49.4175 42.3737 50.2902C42.3769 50.3385 42.4063 51.6454 42.7022 51.4C42.8756 51.2562 42.9525 51.0359 43.0336 50.8348C43.4134 49.8931 43.6847 48.8989 43.9777 47.9286C43.9846 47.9058 44.5855 45.886 44.6288 45.7446C44.6877 45.5517 44.8346 44.8152 45.0401 44.62C45.0455 44.6149 45.1078 45.9278 45.1082 45.9813C45.1141 46.826 45.0628 47.7585 45.2917 48.5827C45.4013 48.9774 45.6961 48.2512 45.7238 48.195C46.1295 47.3716 46.5051 46.5344 46.9194 45.715C46.9325 45.689 47.3211 44.7463 47.4521 44.765C47.6407 44.7919 47.7044 45.9197 47.7184 46.0168C47.8092 46.6455 47.8827 47.2775 47.9818 47.9049C48.0077 48.0688 48.0354 48.021 48.038 47.8754C48.0462 47.426 48.07 46.9778 48.0883 46.5288C48.0989 46.2703 48.0913 46.7605 48.0913 46.7922C48.0913 47.0356 48.0764 47.2851 48.1179 47.5261C48.1409 47.6591 48.0807 48.0471 48.1564 48.1417C48.3559 48.391 48.3363 48.6224 48.1978 48.8993" stroke="white" stroke-width="3" stroke-linecap="square"/>
<path d="M38.9822 46.1826C38.3059 46.0698 37.4143 46.9115 36.9786 47.3308C36.3932 47.8943 35.8774 48.5879 35.4693 49.29C35.3804 49.4429 35.0962 49.977 35.5522 49.8374C36.4511 49.5623 37.288 48.7244 37.9345 48.0884C38.9258 47.1133 39.7744 46.0009 40.5595 44.8567C40.6855 44.6731 41.0452 44.1574 41.1633 43.8831C41.256 43.6675 41.1674 43.6958 40.9768 43.7765C40.5493 43.9577 39.8945 44.3787 39.5681 44.5815C37.7723 45.6973 38.4907 45.2993 36.3246 46.6028C33.299 48.4235 30.2121 50.1362 27.1504 51.8942C26.5074 52.2634 25.862 52.6287 25.2297 53.0159C25.0012 53.1558 24.7322 53.2615 24.5697 53.4746C24.4895 53.5798 24.8306 53.4234 24.9545 53.3769C25.2362 53.2711 25.515 53.1554 25.7831 53.0188C27.8973 51.9417 29.8213 50.4113 31.4889 48.7336C31.9323 48.2875 32.6726 47.4567 33.0041 46.8395C33.0396 46.7736 33.2686 46.2574 33.0219 46.1411C32.7475 46.0118 31.7145 46.1932 31.6073 46.2121C30.8071 46.3536 29.5541 46.6648 28.7899 46.8751C26.9688 47.3762 25.1935 48.0231 23.386 48.5679C23.1362 48.6431 22.4628 48.9458 22.6224 48.7395C22.7098 48.6267 22.8527 48.571 22.9687 48.4879C23.2217 48.3067 23.4784 48.1305 23.7293 47.9464C25.5857 46.584 27.3991 45.1575 29.0503 43.5487C29.8733 42.7469 30.7767 41.8763 31.4445 40.9296C31.6226 40.6771 31.6047 40.6382 31.3113 40.7461C30.7975 40.935 30.1449 41.3258 29.7192 41.5777C27.2883 43.016 25.0307 44.6964 22.9154 46.5673C22.5331 46.9055 21.1074 48.1349 20.7373 48.7987C20.398 49.4073 21.027 49.3778 21.4209 49.3995C22.4509 49.4562 23.5619 49.2596 24.555 49.0828C26.3972 48.7548 28.3198 48.3059 30.1305 47.8665C33.233 47.1135 36.2897 46.2233 39.3639 45.3687C39.6047 45.3018 40.0625 45.0222 40.1067 45.2681C40.1224 45.3552 40.0577 45.4418 40.0061 45.5137C39.8428 45.7413 39.6509 45.9471 39.4675 46.1589C37.733 48.1618 35.9718 50.135 34.3299 52.2168C34.0723 52.5435 33.0804 53.7628 32.8266 54.3417C32.6043 54.8486 33.0288 54.6523 33.2764 54.5429C33.8729 54.2795 34.4735 53.8149 34.9781 53.4361C35.89 52.7515 36.7746 52.0311 37.68 51.3379C39.0357 50.2999 40.4039 49.2224 41.8587 48.3222C42.0032 48.2328 42.3271 48.03 42.353 48.1979C42.3885 48.4288 42.086 49.2353 42.0659 49.2959C41.7514 50.2429 41.2484 51.3054 41.3053 52.3293C41.3476 53.0901 41.9077 52.8998 42.3441 52.5512C43.2417 51.8342 44.0527 50.8721 44.6583 49.8996C44.7707 49.7192 45.6028 48.3897 45.1023 48.1802C44.6202 47.9784 43.5488 48.396 43.1313 48.5146C41.2406 49.0518 39.4214 49.8094 37.5972 50.5329C37.1476 50.7112 36.7006 50.8961 36.2477 51.0656C36.1369 51.1071 36.4561 50.9539 36.5614 50.8999C37.6934 50.3188 38.8244 49.7214 39.9114 49.0591C40.4203 48.7491 41.7682 48.0302 41.2077 47.828C41.0157 47.7588 40.1936 47.7507 40.0949 47.751C39.4529 47.7533 38.5442 47.8003 37.9227 47.8517C34.5634 48.1291 31.2405 48.667 27.8725 48.8756C26.9839 48.9307 29.608 48.4628 30.4472 48.1654C30.6084 48.1082 30.911 47.9926 31.0864 47.9079C31.2075 47.8494 31.2521 47.835 31.0775 47.8073C30.088 47.6504 29.026 47.6835 28.0293 47.6889C26.1517 47.6991 20.5411 48.2313 22.4182 48.1861C22.8973 48.1745 23.4734 48.1012 23.9187 47.9168C24.3099 47.7547 23.0932 47.692 22.6698 47.683C20.9942 47.6472 19.3065 47.7548 17.6328 47.6741C17.6034 47.6727 18.6562 47.461 17.9465 47.461C15.5326 47.461 13.083 47.6574 10.6723 47.5025C9.16488 47.4056 7.65695 47.3702 6.14434 47.4196C5.78597 47.4313 5.41903 47.4355 5.06119 47.461C4.9441 47.4694 4.82895 47.5449 4.94282 47.6208" stroke="white" stroke-width="3" stroke-linecap="square"/>
<path d="M191.874 250.374C191.652 250.394 191.426 250.443 191.205 250.475C190.23 250.614 189.218 250.576 188.237 250.576C186.132 250.576 184.028 250.576 181.923 250.576C180.675 250.576 179.418 250.523 178.177 250.654C177.069 250.772 175.935 250.628 174.823 250.688C173.747 250.746 172.669 250.727 171.592 250.727C170.396 250.727 169.203 250.777 168.008 250.777C167.499 250.777 167.003 250.871 166.496 250.878C165.998 250.885 165.499 250.878 165.001 250.878C163.907 250.878 162.813 250.878 161.719 250.878C160.887 250.878 160.065 250.805 159.236 250.752C158.676 250.717 158.136 250.627 157.584 250.528C157.083 250.438 156.57 250.444 156.067 250.371C155.235 250.251 154.41 250.273 153.572 250.273C153.249 250.273 152.926 250.273 152.603 250.273C152.42 250.273 151.94 250.276 152.48 250.273C154.872 250.264 157.254 250.149 159.636 249.935C161.8 249.74 163.964 249.57 166.132 249.436C166.613 249.407 167.102 249.366 167.585 249.366C167.707 249.366 167.345 249.407 167.227 249.436C166.612 249.59 166.006 249.801 165.412 250.021C164.971 250.185 164.556 250.415 164.116 250.576C163.954 250.635 164.004 250.39 163.982 250.293C163.786 249.435 163.151 249.298 162.369 249.327C160.178 249.407 158.132 250.233 156.097 250.973C155.991 251.012 155.283 251.271 155.117 251.326C155.104 251.33 154.782 251.442 154.709 251.427C154.546 251.394 154.455 250.719 154.417 250.609C154.254 250.135 153.932 249.299 153.269 249.573C152.59 249.855 152.088 250.876 151.858 251.522C151.805 251.671 151.61 252.013 151.766 251.987C151.863 251.971 151.918 251.551 151.926 251.497C151.967 251.209 151.959 250.916 151.959 250.626C151.959 250.59 151.982 250.281 151.951 250.539C151.879 251.122 151.707 251.684 151.707 252.275C151.707 252.52 152.01 251.65 152.038 251.572C152.075 251.465 152.421 250.132 152.625 250.318C153.032 250.689 152.89 251.529 153.096 252.009C153.272 252.42 153.686 251.34 153.953 251.36C154.208 251.378 154.185 252.034 154.196 252.169C154.209 252.322 154.143 252.727 154.258 252.625C154.378 252.518 154.458 251.813 154.602 251.813C154.651 251.813 154.81 252.303 154.821 252.326C154.949 252.6 155.105 252.912 155.378 253.07C155.669 253.24 155.928 252.838 156.081 252.653C156.418 252.243 156.685 251.797 156.957 251.343C157.154 251.014 157.226 250.988 157.525 251.203C158.319 251.773 158.817 250.97 159.261 250.352C159.38 250.187 159.489 249.767 159.72 249.87C159.872 249.938 160.008 249.922 160.163 249.881C160.462 249.803 159.579 250.119 159.342 250.318C158.914 250.679 160.662 250.345 160.731 250.327C161.514 250.112 162.287 249.881 163.089 249.741C163.402 249.687 163.727 249.606 163.332 249.898C162.955 250.177 162.558 250.44 162.232 250.78C161.954 251.07 162.108 251.121 162.453 251.116C164.467 251.085 166.489 250.552 168.456 250.167C168.844 250.091 169.941 249.763 169.632 250.01C168.931 250.569 168.09 251.022 167.325 251.483C166.831 251.78 166.74 251.823 166.289 252.071C166.182 252.129 166.055 252.164 165.975 252.256C165.937 252.299 166.092 252.265 166.149 252.256C166.343 252.224 166.934 252.108 167.062 252.082C168.259 251.841 169.451 251.566 170.651 251.337C171.202 251.232 171.808 251.08 172.376 251.08C172.432 251.08 172.31 251.178 172.261 251.206C171.757 251.487 171.227 251.719 170.721 251.998C170.482 252.13 169.816 252.439 170.08 252.505C170.677 252.654 171.476 252.479 172.065 252.398C173.029 252.266 175.863 251.603 174.946 251.928C174.566 252.063 174.192 252.218 173.832 252.398C173.221 252.704 174.106 252.511 174.218 252.491C175.918 252.183 177.561 251.636 179.303 251.584C179.428 251.58 179.791 251.564 179.678 251.617C179.223 251.832 178.761 252.038 178.3 252.239C177.984 252.377 177.663 252.501 177.348 252.642C177.276 252.674 177.081 252.763 177.158 252.782C177.606 252.891 178.287 252.691 178.709 252.603C179.417 252.455 180.106 252.239 180.809 252.071C180.903 252.048 180.993 252.037 181.089 252.037" stroke="white" stroke-width="3" stroke-linecap="square"/>
</svg>
